ffmpeg started on 2025-06-27 at 10:12:46
Report written to "D:\Convert\FFMetrics\reports\ssim_report-6.txt"
Log level: 32
Command line:
ffmpeg -hide_banner -nostdin -i "G:\\\xc0\xed\xe8\xec\xe5\\[\xd2\xee\xef-4]\\\xd2\xee\xea\xe8\xe9\xf1\xea\xe8\xe9 \xc3\xf3\xeb\xfc\\\xd2\xc2-4\\Tokyo_Ghoul_Re_[07]_[AniLibria_TV]_[HDTVRip_720p]_HEVC.mkv" -i "G:\\\xc0\xed\xe8\xec\xe5\\[\xd2\xee\xef-4]\\\xd2\xee\xea\xe8\xe9\xf1\xea\xe8\xe9 \xc3\xf3\xeb\xfc\\\xd2\xc2-4\\Tokyo_Ghoul_Re_[07]_[AniLibria_TV]_[HDTVRip_720p].mkv" -lavfi "[0:v]settb=AVTB,setpts=PTS-STARTPTS,format=pix_fmts=yuv420p10,fps=24000/1001,scale=1280:720:flags=bicubic[main];[1:v]settb=AVTB,setpts=PTS-STARTPTS,format=pix_fmts=yuv420p,fps=24000/1001,scale=1280:720:flags=bicubic[ref];[main][ref]ssim=eof_action=endall:stats_file='D\\:/Convert/FFMetrics/logs/ssim_logfile-6.txt'" -f null -
Input #0, matroska,webm, from 'G:\Аниме\[Топ-4]\Токийский Гуль\ТВ-4\Tokyo_Ghoul_Re_[07]_[AniLibria_TV]_[HDTVRip_720p]_HEVC.mkv':
  Metadata:
    ENCODER         : Lavf61.7.100
  Duration: 00:24:30.04, start: -0.021000, bitrate: 772 kb/s
  Stream #0:0(jpn): Video: hevc (Main 10), yuv420p10le(tv, bt709, progressive), 1280x720 [SAR 1:1 DAR 16:9], 23.98 fps, 23.98 tbr, 1k tbn (default)
      Metadata:
        ENCODER         : Lavc61.19.100 libx265
        BPS             : 432770
        DURATION        : 00:24:29.968708333
        NUMBER_OF_FRAMES: 35244
        NUMBER_OF_BYTES : 79519794
        _STATISTICS_WRITING_APP: mkvpropedit v66.0.0 ('Josie') 64-bit
        _STATISTICS_WRITING_DATE_UTC: 2025-06-26 14:07:37
        _STATISTICS_TAGS: BPS DURATION NUMBER_OF_FRAMES NUMBER_OF_BYTES
  Stream #0:1(rus): Audio: aac (LC), 48000 Hz, stereo, fltp (default) (forced)
      Metadata:
        title           : Lupin, Silv, December & MyAska
        ENCODER         : Lavc61.19.100 aac
        BPS             : 193805
        DURATION        : 00:24:30.016000000
        NUMBER_OF_FRAMES: 68908
        NUMBER_OF_BYTES : 35612065
        _STATISTICS_WRITING_APP: mkvpropedit v66.0.0 ('Josie') 64-bit
        _STATISTICS_WRITING_DATE_UTC: 2025-06-26 14:07:37
        _STATISTICS_TAGS: BPS DURATION NUMBER_OF_FRAMES NUMBER_OF_BYTES
  Stream #0:2(rus): Subtitle: ass (ssa) (default) (forced)
      Metadata:
        title           : Надписи
        BPS             : 66102
        DURATION        : 00:23:04.720000000
        NUMBER_OF_FRAMES: 38684
        NUMBER_OF_BYTES : 11441597
        _STATISTICS_WRITING_APP: mkvpropedit v66.0.0 ('Josie') 64-bit
        _STATISTICS_WRITING_DATE_UTC: 2025-06-26 14:07:37
        _STATISTICS_TAGS: BPS DURATION NUMBER_OF_FRAMES NUMBER_OF_BYTES
  Stream #0:3(rus): Subtitle: ass (ssa)
      Metadata:
        title           : Субтитры
        BPS             : 63857
        DURATION        : 00:23:56.020000000
        NUMBER_OF_FRAMES: 38979
        NUMBER_OF_BYTES : 11462593
        _STATISTICS_WRITING_APP: mkvpropedit v66.0.0 ('Josie') 64-bit
        _STATISTICS_WRITING_DATE_UTC: 2025-06-26 14:07:37
        _STATISTICS_TAGS: BPS DURATION NUMBER_OF_FRAMES NUMBER_OF_BYTES
Input #1, matroska,webm, from 'G:\Аниме\[Топ-4]\Токийский Гуль\ТВ-4\Tokyo_Ghoul_Re_[07]_[AniLibria_TV]_[HDTVRip_720p].mkv':
  Metadata:
    encoder         : libebml v1.4.2 + libmatroska v1.6.4
    creation_time   : 2024-12-27T09:46:02.000000Z
  Duration: 00:24:30.02, start: 0.000000, bitrate: 1836 kb/s
  Stream #1:0(jpn): Video: h264 (Main), yuv420p(tv, bt709, progressive), 1280x720, SAR 1:1 DAR 16:9, 23.98 fps, 23.98 tbr, 1k tbn (default)
      Metadata:
        BPS             : 1488133
        DURATION        : 00:24:29.969000000
        NUMBER_OF_FRAMES: 35244
        NUMBER_OF_BYTES : 273438720
        _STATISTICS_WRITING_APP: mkvmerge v66.0.0 ('Josie') 64-bit
        _STATISTICS_WRITING_DATE_UTC: 2024-12-27 09:46:02
        _STATISTICS_TAGS: BPS DURATION NUMBER_OF_FRAMES NUMBER_OF_BYTES
  Stream #1:1(rus): Audio: aac (LC), 48000 Hz, stereo, fltp (default) (forced)
      Metadata:
        title           : Lupin, Silv, December & MyAska
        BPS             : 192091
        DURATION        : 00:24:30.016000000
        NUMBER_OF_FRAMES: 68907
        NUMBER_OF_BYTES : 35297137
        _STATISTICS_WRITING_APP: mkvmerge v66.0.0 ('Josie') 64-bit
        _STATISTICS_WRITING_DATE_UTC: 2024-12-27 09:46:02
        _STATISTICS_TAGS: BPS DURATION NUMBER_OF_FRAMES NUMBER_OF_BYTES
  Stream #1:2(rus): Subtitle: ass (ssa) (default) (forced)
      Metadata:
        title           : Надписи
        BPS             : 66102
        DURATION        : 00:23:04.720000000
        NUMBER_OF_FRAMES: 38684
        NUMBER_OF_BYTES : 11441597
        _STATISTICS_WRITING_APP: mkvmerge v66.0.0 ('Josie') 64-bit
        _STATISTICS_WRITING_DATE_UTC: 2024-12-27 09:46:02
        _STATISTICS_TAGS: BPS DURATION NUMBER_OF_FRAMES NUMBER_OF_BYTES
  Stream #1:3(rus): Subtitle: ass (ssa)
      Metadata:
        title           : Субтитры
        BPS             : 63857
        DURATION        : 00:23:56.020000000
        NUMBER_OF_FRAMES: 38979
        NUMBER_OF_BYTES : 11462593
        _STATISTICS_WRITING_APP: mkvmerge v66.0.0 ('Josie') 64-bit
        _STATISTICS_WRITING_DATE_UTC: 2024-12-27 09:46:02
        _STATISTICS_TAGS: BPS DURATION NUMBER_OF_FRAMES NUMBER_OF_BYTES
  Stream #1:4: Attachment: ttf
      Metadata:
        filename        : BenchNine-Regular.ttf
        mimetype        : application/x-truetype-font
  Stream #1:5: Attachment: ttf
      Metadata:
        filename        : OpenSanA.ttf
        mimetype        : application/x-truetype-font
  Stream #1:6: Attachment: ttf
      Metadata:
        filename        : REDOCTOB.otf
        mimetype        : application/x-truetype-font
  Stream #1:7: Attachment: ttf
      Metadata:
        filename        : simsun_0.ttc
        mimetype        : application/x-truetype-font
  Stream #1:8: Attachment: ttf
      Metadata:
        filename        : Snowstorm.ttf
        mimetype        : application/x-truetype-font
  Stream #1:9: Attachment: ttf
      Metadata:
        filename        : TEMPSITC.TTF
        mimetype        : application/x-truetype-font
  Stream #1:10: Attachment: otf
      Metadata:
        filename        : TrajanPro3-Bold.otf
        mimetype        : application/vnd.ms-opentype
  Stream #1:11: Attachment: otf
      Metadata:
        filename        : TrajanPro3-Regular.otf
        mimetype        : application/vnd.ms-opentype
  Stream #1:12: Attachment: ttf
      Metadata:
        filename        : v_HolyMackerelli_v1.9.ttf
        mimetype        : application/x-truetype-font
  Stream #1:13: Attachment: ttf
      Metadata:
        filename        : v_StraightJacketBB_v1.1.ttf
        mimetype        : application/x-truetype-font
  Stream #1:14: Attachment: ttf
      Metadata:
        filename        : XENI.TTF
        mimetype        : application/x-truetype-font
  Stream #1:15: Attachment: ttf
      Metadata:
        filename        : 10352__0.ttf
        mimetype        : application/x-truetype-font
  Stream #1:16: Attachment: ttf
      Metadata:
        filename        : Aero Matics Display Bold Italic.ttf
        mimetype        : application/x-truetype-font
  Stream #1:17: Attachment: ttf
      Metadata:
        filename        : Aero Matics Display Bold.ttf
        mimetype        : application/x-truetype-font
  Stream #1:18: Attachment: ttf
      Metadata:
        filename        : Aero Matics Display Italic.ttf
        mimetype        : application/x-truetype-font
  Stream #1:19: Attachment: ttf
      Metadata:
        filename        : Aero Matics Display Light Italic.ttf
        mimetype        : application/x-truetype-font
  Stream #1:20: Attachment: ttf
      Metadata:
        filename        : Aero Matics Display Light.ttf
        mimetype        : application/x-truetype-font
  Stream #1:21: Attachment: ttf
      Metadata:
        filename        : Aero_Matics_Display_Regular.ttf
        mimetype        : application/x-truetype-font
Stream mapping:
  Stream #0:0 (hevc) -> settb:default
  Stream #1:0 (h264) -> settb:default
  ssim:default -> Stream #0:0 (wrapped_avframe)
  Stream #0:1 -> #0:1 (aac (native) -> pcm_s16le (native))
Output #0, null, to 'pipe:':
  Metadata:
    encoder         : Lavf61.7.100
  Stream #0:0: Video: wrapped_avframe, yuv420p10le(tv, bt709, progressive), 1280x720 [SAR 1:1 DAR 16:9], q=2-31, 200 kb/s, 23.98 fps, 23.98 tbn
      Metadata:
        encoder         : Lavc61.19.100 wrapped_avframe
  Stream #0:1(rus): Audio: pcm_s16le, 48000 Hz, stereo, s16, 1536 kb/s (default) (forced)
      Metadata:
        title           : Lupin, Silv, December & MyAska
        _STATISTICS_TAGS: BPS DURATION NUMBER_OF_FRAMES NUMBER_OF_BYTES
        BPS             : 193805
        DURATION        : 00:24:30.016000000
        NUMBER_OF_FRAMES: 68908
        NUMBER_OF_BYTES : 35612065
        _STATISTICS_WRITING_APP: mkvpropedit v66.0.0 ('Josie') 64-bit
        _STATISTICS_WRITING_DATE_UTC: 2025-06-26 14:07:37
        encoder         : Lavc61.19.100 pcm_s16le
frame=  418 fps=0.0 q=-0.0 size=N/A time=00:00:17.43 bitrate=N/A speed=33.2x    frame=  893 fps=869 q=-0.0 size=N/A time=00:00:37.24 bitrate=N/A speed=36.2x    frame= 1435 fps=927 q=-0.0 size=N/A time=00:00:59.85 bitrate=N/A speed=38.7x    frame= 1883 fps=911 q=-0.0 size=N/A time=00:01:18.53 bitrate=N/A speed=  38x    frame= 2250 fps=871 q=-0.0 size=N/A time=00:01:33.84 bitrate=N/A speed=36.3x    frame= 2596 fps=837 q=-0.0 size=N/A time=00:01:48.27 bitrate=N/A speed=34.9x    frame= 2941 fps=813 q=-0.0 size=N/A time=00:02:02.66 bitrate=N/A speed=33.9x    frame= 3266 fps=790 q=-0.0 size=N/A time=00:02:16.21 bitrate=N/A speed=32.9x    frame= 3635 fps=783 q=-0.0 size=N/A time=00:02:31.60 bitrate=N/A speed=32.7x    frame= 4035 fps=782 q=-0.0 size=N/A time=00:02:48.29 bitrate=N/A speed=32.6x    frame= 4596 fps=810 q=-0.0 size=N/A time=00:03:11.69 bitrate=N/A speed=33.8x    frame= 5152 fps=831 q=-0.0 size=N/A time=00:03:34.88 bitrate=N/A speed=34.7x    frame= 5690 fps=847 q=-0.0 size=N/A time=00:03:57.32 bitrate=N/A speed=35.3x    frame= 6275 fps=868 q=-0.0 size=N/A time=00:04:21.71 bitrate=N/A speed=36.2x    frame= 6827 fps=882 q=-0.0 size=N/A time=00:04:44.74 bitrate=N/A speed=36.8x    frame= 7375 fps=893 q=-0.0 size=N/A time=00:05:07.59 bitrate=N/A speed=37.3x    frame= 7839 fps=893 q=-0.0 size=N/A time=00:05:26.95 bitrate=N/A speed=37.3x    frame= 8356 fps=900 q=-0.0 size=N/A time=00:05:48.51 bitrate=N/A speed=37.5x    frame= 8855 fps=903 q=-0.0 size=N/A time=00:06:09.32 bitrate=N/A speed=37.7x    frame= 9418 fps=913 q=-0.0 size=N/A time=00:06:32.80 bitrate=N/A speed=38.1x    frame= 9870 fps=911 q=-0.0 size=N/A time=00:06:51.66 bitrate=N/A speed=  38x    frame=10455 fps=921 q=-0.0 size=N/A time=00:07:16.06 bitrate=N/A speed=38.4x    frame=10972 fps=925 q=-0.0 size=N/A time=00:07:37.62 bitrate=N/A speed=38.6x    frame=11438 fps=924 q=-0.0 size=N/A time=00:07:57.05 bitrate=N/A speed=38.5x    frame=11951 fps=926 q=-0.0 size=N/A time=00:08:18.45 bitrate=N/A speed=38.6x    frame=12411 fps=926 q=-0.0 size=N/A time=00:08:37.64 bitrate=N/A speed=38.6x    frame=12879 fps=925 q=-0.0 size=N/A time=00:08:57.16 bitrate=N/A speed=38.6x    frame=13366 fps=925 q=-0.0 size=N/A time=00:09:17.47 bitrate=N/A speed=38.6x    frame=13903 fps=929 q=-0.0 size=N/A time=00:09:39.87 bitrate=N/A speed=38.8x    frame=14411 fps=932 q=-0.0 size=N/A time=00:10:01.05 bitrate=N/A speed=38.9x    frame=14893 fps=932 q=-0.0 size=N/A time=00:10:21.16 bitrate=N/A speed=38.9x    frame=15461 fps=937 q=-0.0 size=N/A time=00:10:44.85 bitrate=N/A speed=39.1x    frame=15985 fps=939 q=-0.0 size=N/A time=00:11:06.70 bitrate=N/A speed=39.2x    frame=16440 fps=938 q=-0.0 size=N/A time=00:11:25.68 bitrate=N/A speed=39.1x    frame=16961 fps=940 q=-0.0 size=N/A time=00:11:47.41 bitrate=N/A speed=39.2x    frame=17504 fps=943 q=-0.0 size=N/A time=00:12:10.06 bitrate=N/A speed=39.3x    frame=17989 fps=943 q=-0.0 size=N/A time=00:12:30.29 bitrate=N/A speed=39.3x    frame=18579 fps=948 q=-0.0 size=N/A time=00:12:54.89 bitrate=N/A speed=39.6x    frame=19095 fps=949 q=-0.0 size=N/A time=00:13:16.42 bitrate=N/A speed=39.6x    frame=19650 fps=953 q=-0.0 size=N/A time=00:13:39.56 bitrate=N/A speed=39.7x    frame=20245 fps=958 q=-0.0 size=N/A time=00:14:04.38 bitrate=N/A speed=39.9x    frame=20699 fps=956 q=-0.0 size=N/A time=00:14:23.32 bitrate=N/A speed=39.9x    frame=21146 fps=954 q=-0.0 size=N/A time=00:14:41.96 bitrate=N/A speed=39.8x    frame=21709 fps=957 q=-0.0 size=N/A time=00:15:05.44 bitrate=N/A speed=39.9x    frame=22290 fps=961 q=-0.0 size=N/A time=00:15:29.67 bitrate=N/A speed=40.1x    frame=22819 fps=962 q=-0.0 size=N/A time=00:15:51.74 bitrate=N/A speed=40.1x    frame=23339 fps=963 q=-0.0 size=N/A time=00:16:13.43 bitrate=N/A speed=40.2x    frame=23933 fps=967 q=-0.0 size=N/A time=00:16:38.20 bitrate=N/A speed=40.3x    frame=24475 fps=968 q=-0.0 size=N/A time=00:17:00.81 bitrate=N/A speed=40.4x    frame=25046 fps=971 q=-0.0 size=N/A time=00:17:24.62 bitrate=N/A speed=40.5x    frame=25597 fps=973 q=-0.0 size=N/A time=00:17:47.60 bitrate=N/A speed=40.6x    frame=26099 fps=973 q=-0.0 size=N/A time=00:18:08.54 bitrate=N/A speed=40.6x    frame=26707 fps=977 q=-0.0 size=N/A time=00:18:33.90 bitrate=N/A speed=40.8x    frame=27275 fps=979 q=-0.0 size=N/A time=00:18:57.59 bitrate=N/A speed=40.8x    frame=27815 fps=981 q=-0.0 size=N/A time=00:19:20.11 bitrate=N/A speed=40.9x    frame=28402 fps=983 q=-0.0 size=N/A time=00:19:44.60 bitrate=N/A speed=  41x    frame=29005 fps=987 q=-0.0 size=N/A time=00:20:09.75 bitrate=N/A speed=41.2x    frame=29539 fps=987 q=-0.0 size=N/A time=00:20:32.02 bitrate=N/A speed=41.2x    frame=29988 fps=986 q=-0.0 size=N/A time=00:20:50.74 bitrate=N/A speed=41.1x    frame=30400 fps=983 q=-0.0 size=N/A time=00:21:07.93 bitrate=N/A speed=  41x    frame=30894 fps=982 q=-0.0 size=N/A time=00:21:28.53 bitrate=N/A speed=  41x    frame=31304 fps=979 q=-0.0 size=N/A time=00:21:45.63 bitrate=N/A speed=40.8x    frame=31820 fps=980 q=-0.0 size=N/A time=00:22:07.15 bitrate=N/A speed=40.9x    frame=32397 fps=982 q=-0.0 size=N/A time=00:22:31.22 bitrate=N/A speed=40.9x    frame=32735 fps=977 q=-0.0 size=N/A time=00:22:45.32 bitrate=N/A speed=40.7x    frame=33172 fps=975 q=-0.0 size=N/A time=00:23:03.54 bitrate=N/A speed=40.6x    frame=33611 fps=973 q=-0.0 size=N/A time=00:23:21.85 bitrate=N/A speed=40.6x    frame=34088 fps=972 q=-0.0 size=N/A time=00:23:41.75 bitrate=N/A speed=40.5x    frame=34546 fps=971 q=-0.0 size=N/A time=00:24:00.85 bitrate=N/A speed=40.5x    frame=35096 fps=972 q=-0.0 size=N/A time=00:24:23.79 bitrate=N/A speed=40.6x    [Parsed_ssim_10 @ 00000267b1b3e5c0] SSIM Y:0.991271 (20.590508) U:0.992776 (21.412022) V:0.993216 (21.685012) All:0.991846 (20.886354)
[out#0/null @ 00000267b2037040] video:15144KiB audio:275632KiB subtitle:0KiB other streams:0KiB global headers:0KiB muxing overhead: unknown
frame=35244 fps=973 q=-0.0 Lsize=N/A time=00:24:29.96 bitrate=N/A speed=40.6x    
